<svg xmlns="http://www.w3.org/2000/svg" xmlns:xlink="http://www.w3.org/1999/xlink" width="375" zoomAndPan="magnify" viewBox="0 0 375 374.999991" height="374.999991" preserveAspectRatio="xMidYMid meet" version="1.0"><defs><clipPath id="id1"><path d="M 0 278.261719 L 93 278.261719 L 93 330.613281 L 0 330.613281 Z M 0 278.261719 " clip-rule="nonzero"/></clipPath><clipPath id="id2"><path d="M 74.230469 327 L 83.394531 327 L 83.394531 330.613281 L 74.230469 330.613281 Z M 74.230469 327 " clip-rule="nonzero"/></clipPath><clipPath id="id3"><path d="M 78 327 L 83.394531 327 L 83.394531 330.613281 L 78 330.613281 Z M 78 327 " clip-rule="nonzero"/></clipPath><clipPath id="id4"><path d="M 226 145 L 360 145 L 360 330.75 L 226 330.75 Z M 226 145 " clip-rule="nonzero"/></clipPath><clipPath id="id5"><path d="M 293 318.558594 L 375 318.558594 L 375 330.613281 L 293 330.613281 Z M 293 318.558594 " clip-rule="nonzero"/></clipPath><clipPath id="id6"><path d="M 352 318.558594 L 374.816406 318.558594 L 374.816406 330.613281 L 352 330.613281 Z M 352 318.558594 " clip-rule="nonzero"/></clipPath><clipPath id="id7"><path d="M 293 318.558594 L 373.898438 318.558594 L 373.898438 330.613281 L 293 330.613281 Z M 293 318.558594 " clip-rule="nonzero"/></clipPath></defs><path fill="rgb(20.779419%, 12.159729%, 9.01947%)" d="M 91.710938 280.503906 L 283.898438 280.503906 L 283.898438 58.484375 L 91.710938 58.484375 Z M 91.710938 280.503906 " fill-opacity="1" fill-rule="nonzero"/><path fill="rgb(95.689392%, 95.689392%, 95.689392%)" d="M 270.015625 259.929688 C 270.015625 265.644531 265.09375 270.28125 259.023438 270.28125 L 116.589844 270.28125 C 110.519531 270.28125 105.597656 265.644531 105.597656 259.929688 L 105.597656 79.792969 C 105.597656 74.074219 110.519531 69.441406 116.589844 69.441406 L 259.023438 69.441406 C 265.09375 69.441406 270.015625 74.074219 270.015625 79.792969 L 270.015625 259.929688 " fill-opacity="1" fill-rule="nonzero"/><path fill="rgb(30.979919%, 29.798889%, 29.798889%)" d="M 260.148438 86.054688 L 115.460938 86.054688 L 124.234375 53.921875 L 252.839844 53.921875 L 260.148438 86.054688 " fill-opacity="1" fill-rule="nonzero"/><path fill="rgb(95.689392%, 95.689392%, 95.689392%)" d="M 176.425781 53.921875 L 128.191406 53.921875 L 128.292969 53.535156 L 172.070312 53.535156 C 174.203125 50.363281 176.242188 47.238281 175.929688 46.597656 C 172.292969 39.265625 164.453125 34.640625 164.453125 25.820312 C 164.453125 12.433594 175.042969 1.585938 188.105469 1.585938 C 191.203125 1.585938 194.164062 2.199219 196.875 3.308594 C 197.539062 3.683594 198.183594 4.085938 198.808594 4.515625 C 196.519531 3.757812 194.078125 3.347656 191.542969 3.347656 C 178.480469 3.347656 167.890625 14.195312 167.890625 27.582031 C 167.890625 36.402344 175.730469 41.027344 179.363281 48.359375 C 179.636719 48.90625 178.183594 51.265625 176.425781 53.921875 " fill-opacity="1" fill-rule="nonzero"/><path fill="rgb(49.798584%, 49.01886%, 49.409485%)" d="M 123.953125 84.527344 L 120.042969 84.527344 L 128.191406 53.921875 L 176.425781 53.921875 C 176.125 54.371094 175.816406 54.832031 175.503906 55.292969 L 131.730469 55.292969 L 123.953125 84.527344 " fill-opacity="1" fill-rule="nonzero"/><path fill="rgb(49.798584%, 49.01886%, 49.409485%)" d="M 249.554688 55.59375 L 208.730469 55.59375 C 208.3125 55.03125 207.90625 54.464844 207.511719 53.921875 L 249.171875 53.921875 L 249.554688 55.59375 " fill-opacity="1" fill-rule="nonzero"/><path fill="rgb(74.119568%, 73.728943%, 74.119568%)" d="M 205.121094 53.921875 L 201.835938 53.921875 C 199.429688 50.632812 197.125 47.390625 197.464844 46.730469 C 201.328125 39.128906 209.65625 34.328125 209.65625 25.183594 C 209.65625 16.617188 205.363281 9.050781 198.808594 4.515625 C 199.34375 4.695312 199.871094 4.890625 200.386719 5.105469 C 199.273438 4.414062 198.101562 3.808594 196.875 3.308594 C 193.675781 1.496094 190.035156 0.371094 186.164062 0.117188 C 186.703125 0.0820312 187.25 0.0625 187.804688 0.0625 C 201.691406 0.0625 212.945312 11.304688 212.945312 25.183594 C 212.945312 34.328125 204.613281 39.128906 200.75 46.730469 C 200.410156 47.390625 202.71875 50.632812 205.121094 53.921875 " fill-opacity="1" fill-rule="nonzero"/><path fill="rgb(71.369934%, 70.588684%, 70.979309%)" d="M 200.386719 5.105469 C 199.871094 4.890625 199.34375 4.695312 198.808594 4.515625 C 198.183594 4.085938 197.539062 3.683594 196.875 3.308594 C 198.101562 3.808594 199.273438 4.414062 200.386719 5.105469 " fill-opacity="1" fill-rule="nonzero"/><path fill="rgb(25.878906%, 24.708557%, 24.708557%)" d="M 260.148438 86.054688 L 256.859375 86.054688 L 249.554688 53.921875 L 252.839844 53.921875 L 260.148438 86.054688 " fill-opacity="1" fill-rule="nonzero"/><path fill="rgb(30.979919%, 29.798889%, 29.798889%)" d="M 187.804688 36.027344 C 180.542969 36.027344 174.648438 30.144531 174.648438 22.882812 C 174.648438 15.621094 180.542969 9.734375 187.804688 9.734375 C 195.070312 9.734375 200.957031 15.621094 200.957031 22.882812 C 200.957031 30.144531 195.070312 36.027344 187.804688 36.027344 Z M 200.75 46.730469 C 204.613281 39.128906 212.945312 34.328125 212.945312 25.183594 C 212.945312 11.304688 201.691406 0.0625 187.804688 0.0625 C 173.917969 0.0625 162.660156 11.304688 162.660156 25.183594 C 162.660156 34.328125 171 39.128906 174.859375 46.730469 C 175.515625 48.019531 166.664062 59.089844 166.09375 61.222656 L 210.0625 61.222656 C 209.460938 59.089844 200.09375 48.019531 200.75 46.730469 " fill-opacity="1" fill-rule="nonzero"/><path fill="rgb(95.689392%, 95.689392%, 95.689392%)" d="M 142.453125 126.164062 L 120.042969 126.164062 L 120.042969 103.765625 L 142.453125 103.765625 L 142.453125 126.164062 " fill-opacity="1" fill-rule="nonzero"/><path fill="rgb(94.509888%, 27.449036%, 14.118958%)" d="M 142.453125 126.164062 L 142.453125 123.972656 L 122.234375 123.972656 L 122.234375 105.957031 L 140.257812 105.957031 L 140.261719 126.164062 L 142.453125 126.164062 L 142.453125 123.972656 L 142.453125 126.164062 L 144.644531 126.164062 L 144.644531 101.578125 L 117.851562 101.578125 L 117.851562 128.351562 L 144.644531 128.351562 L 144.644531 126.164062 L 142.453125 126.164062 " fill-opacity="1" fill-rule="nonzero"/><path fill="rgb(95.689392%, 95.689392%, 95.689392%)" d="M 120.042969 157.808594 L 142.453125 157.808594 L 142.453125 135.410156 L 120.042969 135.410156 Z M 120.042969 157.808594 " fill-opacity="1" fill-rule="nonzero"/><path fill="rgb(94.509888%, 27.449036%, 14.118958%)" d="M 142.453125 157.808594 L 142.453125 155.617188 L 122.234375 155.617188 L 122.234375 137.601562 L 140.257812 137.601562 L 140.261719 157.808594 L 142.453125 157.808594 L 142.453125 155.617188 L 142.453125 157.808594 L 144.644531 157.808594 L 144.644531 133.21875 L 117.851562 133.21875 L 117.851562 159.996094 L 144.644531 159.996094 L 144.644531 157.808594 L 142.453125 157.808594 " fill-opacity="1" fill-rule="nonzero"/><path fill="rgb(95.689392%, 95.689392%, 95.689392%)" d="M 120.042969 189.453125 L 142.453125 189.453125 L 142.453125 167.058594 L 120.042969 167.058594 Z M 120.042969 189.453125 " fill-opacity="1" fill-rule="nonzero"/><path fill="rgb(94.509888%, 27.449036%, 14.118958%)" d="M 142.453125 189.453125 L 142.453125 187.261719 L 122.234375 187.261719 L 122.234375 169.25 L 140.257812 169.25 L 140.261719 189.453125 L 142.453125 189.453125 L 142.453125 187.261719 L 142.453125 189.453125 L 144.644531 189.453125 L 144.644531 164.867188 L 117.851562 164.867188 L 117.851562 191.644531 L 144.644531 191.644531 L 144.644531 189.453125 L 142.453125 189.453125 " fill-opacity="1" fill-rule="nonzero"/><path fill="rgb(95.689392%, 95.689392%, 95.689392%)" d="M 142.453125 221.101562 L 120.042969 221.101562 L 120.042969 198.707031 L 142.453125 198.707031 L 142.453125 221.101562 " fill-opacity="1" fill-rule="nonzero"/><path fill="rgb(94.509888%, 27.449036%, 14.118958%)" d="M 142.453125 221.101562 L 142.453125 218.910156 L 122.234375 218.910156 L 122.234375 200.894531 L 140.257812 200.894531 L 140.261719 221.101562 L 142.453125 221.101562 L 142.453125 218.910156 L 142.453125 221.101562 L 144.644531 221.101562 L 144.644531 196.511719 L 117.851562 196.511719 L 117.851562 223.292969 L 144.644531 223.292969 L 144.644531 221.101562 L 142.453125 221.101562 " fill-opacity="1" fill-rule="nonzero"/><path fill="rgb(95.689392%, 95.689392%, 95.689392%)" d="M 142.453125 252.746094 L 120.042969 252.746094 L 120.042969 230.351562 L 142.453125 230.351562 L 142.453125 252.746094 " fill-opacity="1" fill-rule="nonzero"/><path fill="rgb(94.509888%, 27.449036%, 14.118958%)" d="M 142.453125 252.746094 L 142.453125 250.554688 L 122.234375 250.554688 L 122.234375 232.539062 L 140.257812 232.539062 L 140.261719 252.746094 L 142.453125 252.746094 L 142.453125 250.554688 L 142.453125 252.746094 L 144.644531 252.746094 L 144.644531 228.160156 L 117.851562 228.160156 L 117.851562 254.9375 L 144.644531 254.9375 L 144.644531 252.746094 L 142.453125 252.746094 " fill-opacity="1" fill-rule="nonzero"/><path fill="rgb(30.979919%, 29.798889%, 29.798889%)" d="M 258.199219 126.648438 L 148.949219 126.648438 L 148.949219 122.757812 L 258.199219 122.757812 L 258.199219 126.648438 " fill-opacity="1" fill-rule="nonzero"/><path fill="rgb(30.979919%, 29.798889%, 29.798889%)" d="M 148.949219 158.292969 L 258.199219 158.292969 L 258.199219 154.402344 L 148.949219 154.402344 Z M 148.949219 158.292969 " fill-opacity="1" fill-rule="nonzero"/><path fill="rgb(30.979919%, 29.798889%, 29.798889%)" d="M 148.949219 189.941406 L 258.199219 189.941406 L 258.199219 186.046875 L 148.949219 186.046875 Z M 148.949219 189.941406 " fill-opacity="1" fill-rule="nonzero"/><path fill="rgb(30.979919%, 29.798889%, 29.798889%)" d="M 258.199219 221.585938 L 148.949219 221.585938 L 148.949219 217.691406 L 258.199219 217.691406 L 258.199219 221.585938 " fill-opacity="1" fill-rule="nonzero"/><path fill="rgb(30.979919%, 29.798889%, 29.798889%)" d="M 258.199219 253.234375 L 148.949219 253.234375 L 148.949219 249.339844 L 258.199219 249.339844 L 258.199219 253.234375 " fill-opacity="1" fill-rule="nonzero"/><path fill="rgb(97.648621%, 68.238831%, 49.409485%)" d="M 91.292969 173.988281 L 55.160156 193.527344 C 55.160156 193.527344 44.164062 199.285156 48.355469 213.9375 C 52.542969 228.59375 56.210938 261.5625 56.210938 261.5625 L 47.398438 278.832031 L 91.929688 313.632812 C 91.929688 313.632812 160.148438 280.664062 120.875 227.546875 C 126.632812 211.035156 135.5 181.144531 141.367188 167.714844 C 143.636719 162.503906 144.175781 150.089844 124.277344 152.710938 C 104.378906 155.324219 91.292969 211.035156 91.292969 211.035156 L 91.292969 173.988281 " fill-opacity="1" fill-rule="nonzero"/><path fill="rgb(91.369629%, 91.369629%, 91.369629%)" d="M 87.207031 328.527344 L 33.859375 284.558594 L 48.945312 266.269531 L 102.296875 310.242188 L 87.207031 328.527344 " fill-opacity="1" fill-rule="nonzero"/><path fill="rgb(91.369629%, 91.369629%, 91.369629%)" d="M 34.945312 285.453125 L 33.859375 284.558594 L 34.945312 285.453125 " fill-opacity="1" fill-rule="nonzero"/><path fill="rgb(83.918762%, 83.529663%, 83.529663%)" d="M 100.785156 312.070312 L 48.527344 268.992188 L 34.945312 285.453125 L 33.859375 284.558594 L 48.945312 266.269531 L 102.296875 310.242188 L 100.785156 312.070312 " fill-opacity="1" fill-rule="nonzero"/><g clip-path="url(#id1)"><path fill="rgb(22.349548%, 20.779419%, 21.179199%)" d="M 89.128906 330.613281 L 92.710938 326.273438 L 35.027344 278.730469 L 0 303.410156 L 0 330.613281 L 89.128906 330.613281 " fill-opacity="1" fill-rule="nonzero"/></g><g clip-path="url(#id2)"><path fill="rgb(82.749939%, 82.348633%, 82.348633%)" d="M 83.082031 330.613281 C 82.859375 329.824219 82.40625 329.097656 81.730469 328.539062 C 79.933594 327.058594 77.246094 327.351562 75.734375 329.1875 C 75.371094 329.621094 75.113281 330.109375 74.945312 330.613281 L 83.082031 330.613281 " fill-opacity="1" fill-rule="nonzero"/></g><g clip-path="url(#id3)"><path fill="rgb(95.689392%, 95.689392%, 95.689392%)" d="M 81.925781 330.613281 L 83.082031 330.613281 C 82.859375 329.824219 82.40625 329.097656 81.730469 328.539062 C 80.824219 327.789062 79.6875 327.496094 78.589844 327.621094 C 79.300781 327.738281 79.984375 328.03125 80.566406 328.511719 C 81.25 329.074219 81.703125 329.8125 81.925781 330.613281 " fill-opacity="1" fill-rule="nonzero"/></g><path fill="rgb(96.859741%, 78.42865%, 65.489197%)" d="M 133.335938 176.304688 L 115.539062 169.621094 C 115.539062 169.621094 119.996094 155.730469 128.960938 155.730469 C 129.90625 155.730469 130.902344 155.882812 131.945312 156.226562 C 139.175781 158.589844 140.484375 159.945312 140.046875 162.160156 C 139.34375 165.746094 133.335938 176.304688 133.335938 176.304688 " fill-opacity="1" fill-rule="nonzero"/><path fill="rgb(87.838745%, 65.098572%, 50.19989%)" d="M 255.703125 178.109375 C 250.21875 182.617188 239.597656 189.71875 243.953125 195.007812 C 248.3125 200.296875 263.515625 203.8125 271.476562 197.261719 L 311.570312 164.289062 C 317.058594 159.78125 317.972656 151.835938 313.617188 146.546875 C 309.261719 141.257812 301.285156 140.625 295.796875 145.136719 L 255.703125 178.109375 " fill-opacity="1" fill-rule="nonzero"/><path fill="rgb(91.369629%, 67.449951%, 52.159119%)" d="M 291.855469 143.417969 C 292.652344 142.917969 292.863281 142.125 292.710938 141.410156 C 292.796875 141.300781 293.390625 140.878906 293.449219 140.753906 C 298.160156 139.789062 296.28125 139.53125 303.515625 139.582031 C 326.75 139.746094 346.230469 179.554688 352.527344 227.699219 L 311.628906 237.636719 C 311.628906 237.636719 327.90625 197.511719 296.621094 164.855469 C 291.941406 159.972656 273.886719 165.015625 275.539062 154.53125 C 281.46875 151.605469 286.234375 146.960938 291.855469 143.417969 " fill-opacity="1" fill-rule="nonzero"/><path fill="rgb(91.369629%, 67.449951%, 52.159119%)" d="M 247.972656 176.394531 C 242.484375 180.910156 231.867188 188.007812 236.222656 193.296875 C 240.574219 198.585938 255.773438 202.105469 263.742188 195.554688 L 303.832031 162.582031 C 309.316406 158.070312 310.234375 150.125 305.882812 144.835938 C 301.523438 139.546875 293.546875 138.914062 288.0625 143.425781 L 247.972656 176.394531 " fill-opacity="1" fill-rule="nonzero"/><g clip-path="url(#id4)"><path fill="rgb(95.289612%, 70.588684%, 54.899597%)" d="M 302.855469 171.457031 C 309.4375 174.035156 316.96875 189.847656 319.742188 195.320312 C 324.695312 205.105469 321.488281 227.957031 321.488281 227.957031 C 321.488281 227.957031 310.226562 244.070312 298.164062 240.695312 C 291.90625 238.941406 271.972656 239.921875 271.972656 239.921875 C 271.972656 239.921875 264.503906 260.21875 303.167969 305.277344 C 303.253906 310.617188 303.445312 319.675781 303.679688 330.164062 L 359.558594 330.164062 C 358.46875 258.574219 350.941406 157.570312 317.617188 146.597656 C 315.472656 145.640625 313.015625 145.097656 310.402344 145.101562 L 249.6875 145.152344 C 248.574219 145.152344 247.335938 145.132812 246.035156 145.109375 C 237.652344 144.976562 226.511719 144.835938 226.515625 150.707031 C 226.523438 157.492188 237.648438 169.738281 249.707031 169.730469 C 249.707031 169.730469 291.507812 167.007812 302.855469 171.457031 " fill-opacity="1" fill-rule="nonzero"/></g><path fill="rgb(95.689392%, 95.689392%, 95.689392%)" d="M 233.6875 145.5625 C 234.316406 145.386719 234.867188 145.363281 235.089844 145.363281 C 235.144531 145.363281 235.175781 145.363281 235.191406 145.363281 C 234.675781 145.421875 234.175781 145.484375 233.6875 145.5625 M 248.921875 145.148438 C 248.164062 145.144531 247.363281 145.132812 246.527344 145.121094 L 248.910156 145.066406 L 248.921875 145.148438 " fill-opacity="1" fill-rule="nonzero"/><path fill="rgb(95.689392%, 79.998779%, 69.018555%)" d="M 250.132812 155.332031 C 248.058594 155.332031 232.46875 155.222656 231.457031 151.949219 C 230.0625 147.425781 232.117188 146.003906 233.6875 145.5625 C 234.175781 145.484375 234.675781 145.421875 235.191406 145.363281 C 235.195312 145.363281 235.195312 145.363281 235.195312 145.363281 L 246.527344 145.121094 C 247.363281 145.132812 248.164062 145.144531 248.921875 145.148438 L 250.363281 155.328125 C 250.363281 155.328125 250.285156 155.332031 250.132812 155.332031 " fill-opacity="1" fill-rule="nonzero"/><path fill="rgb(74.899292%, 10.5896%, 17.248535%)" d="M 367.429688 198.25 C 370.476562 198.148438 372.957031 196.300781 373.132812 193.855469 L 374.15625 179.972656 C 374.335938 177.519531 372.152344 175.335938 369.148438 174.78125 L 367.429688 198.25 " fill-opacity="1" fill-rule="nonzero"/><path fill="rgb(94.509888%, 27.449036%, 14.118958%)" d="M 361.890625 174.328125 L 361.769531 174.316406 L 213.246094 163.425781 L 211.535156 186.753906 L 360.058594 197.644531 L 360.179688 197.644531 L 361.890625 174.328125 " fill-opacity="1" fill-rule="nonzero"/><path fill="rgb(65.489197%, 64.709473%, 65.098572%)" d="M 360.058594 197.644531 L 361.769531 174.316406 L 369.324219 174.867188 L 367.609375 198.195312 L 360.058594 197.644531 " fill-opacity="1" fill-rule="nonzero"/><path fill="rgb(48.239136%, 47.44873%, 47.44873%)" d="M 366.644531 198.695312 C 366.136719 198.660156 365.753906 198.214844 365.789062 197.707031 L 367.453125 175.089844 C 367.488281 174.582031 367.929688 174.199219 368.441406 174.234375 C 368.953125 174.273438 369.335938 174.714844 369.296875 175.222656 L 367.636719 197.839844 C 367.601562 198.351562 367.15625 198.734375 366.644531 198.695312 " fill-opacity="1" fill-rule="nonzero"/><path fill="rgb(48.239136%, 47.44873%, 47.44873%)" d="M 363.792969 198.484375 C 363.277344 198.449219 362.898438 198.003906 362.933594 197.496094 L 364.597656 174.882812 C 364.632812 174.371094 365.074219 173.988281 365.589844 174.023438 C 366.097656 174.0625 366.480469 174.503906 366.441406 175.011719 L 364.78125 197.632812 C 364.746094 198.140625 364.304688 198.519531 363.792969 198.484375 " fill-opacity="1" fill-rule="nonzero"/><path fill="rgb(48.239136%, 47.44873%, 47.44873%)" d="M 360.628906 198.25 C 360.121094 198.214844 359.738281 197.769531 359.777344 197.261719 L 361.433594 174.648438 C 361.472656 174.136719 361.917969 173.753906 362.425781 173.792969 C 362.933594 173.828125 363.320312 174.277344 363.28125 174.78125 L 361.621094 197.398438 C 361.585938 197.90625 361.140625 198.289062 360.628906 198.25 " fill-opacity="1" fill-rule="nonzero"/><path fill="rgb(78.039551%, 22.349548%, 11.369324%)" d="M 271.960938 180.015625 C 271.121094 180.015625 270.289062 180.015625 269.449219 180.011719 C 264.292969 178.824219 259.078125 177.496094 253.84375 176.21875 L 299.496094 179.5625 C 299.148438 179.574219 298.804688 179.585938 298.457031 179.59375 C 289.59375 179.859375 280.773438 180.015625 271.960938 180.015625 " fill-opacity="1" fill-rule="nonzero"/><path fill="rgb(78.039551%, 22.349548%, 11.369324%)" d="M 319.773438 173.878906 C 313.4375 173.878906 307.105469 173.75 300.765625 173.164062 C 294.582031 172.585938 288.398438 171.8125 282.207031 170.996094 L 321.488281 173.875 C 320.917969 173.875 320.347656 173.878906 319.773438 173.878906 M 265.140625 173.566406 L 219.960938 170.257812 C 218.890625 170.179688 218.089844 169.265625 218.164062 168.214844 C 218.242188 167.214844 219.089844 166.449219 220.089844 166.449219 C 220.140625 166.449219 220.191406 166.453125 220.238281 166.457031 L 230.59375 167.214844 C 233.035156 167.535156 235.445312 167.894531 237.789062 168.21875 C 247.011719 169.507812 256.078125 171.511719 265.140625 173.566406 " fill-opacity="1" fill-rule="nonzero"/><path fill="rgb(90.589905%, 76.469421%, 53.329468%)" d="M 214.460938 183.863281 C 214.804688 181.648438 212.042969 179.824219 212.042969 179.824219 C 212.042969 179.824219 216.21875 178.429688 216.445312 175.390625 C 216.699219 171.921875 213.238281 170.796875 212.71875 170.648438 L 212.722656 170.578125 C 213.09375 170.316406 214.789062 169.050781 215.308594 167.410156 C 215.894531 165.566406 213.246094 163.425781 213.246094 163.425781 L 192.847656 173.660156 L 211.535156 186.753906 C 211.535156 186.753906 214.117188 186.082031 214.460938 183.863281 " fill-opacity="1" fill-rule="nonzero"/><path fill="rgb(22.349548%, 20.779419%, 21.179199%)" d="M 195.839844 172.160156 L 192.847656 173.660156 L 195.589844 175.578125 L 195.839844 172.160156 " fill-opacity="1" fill-rule="nonzero"/><path fill="rgb(82.749939%, 82.348633%, 82.348633%)" d="M 366.800781 198.707031 C 366.78125 198.707031 366.757812 198.703125 366.738281 198.703125 C 366.71875 198.703125 366.703125 198.699219 366.691406 198.699219 C 366.699219 198.699219 366.707031 198.699219 366.714844 198.699219 C 367.046875 198.699219 367.34375 198.519531 367.507812 198.25 C 370.144531 198.132812 372.339844 196.710938 372.964844 194.734375 C 372.96875 194.730469 372.96875 194.726562 372.96875 194.722656 C 372.96875 194.71875 372.96875 194.71875 372.972656 194.71875 C 372.972656 194.714844 372.972656 194.710938 372.972656 194.707031 C 372.976562 194.707031 372.976562 194.707031 372.976562 194.707031 C 372.976562 194.703125 372.976562 194.703125 372.976562 194.699219 C 372.980469 194.695312 372.980469 194.695312 372.980469 194.691406 C 372.980469 194.6875 372.980469 194.6875 372.980469 194.683594 C 372.984375 194.679688 372.984375 194.679688 372.984375 194.675781 C 372.988281 194.671875 372.988281 194.671875 372.988281 194.671875 C 372.988281 194.667969 372.988281 194.664062 372.992188 194.664062 C 372.992188 194.664062 372.992188 194.664062 372.992188 194.660156 C 373.003906 194.601562 373.019531 194.546875 373.039062 194.492188 C 373.050781 194.546875 373.066406 194.601562 373.082031 194.65625 C 372.488281 196.679688 370.261719 198.140625 367.582031 198.253906 C 367.421875 198.527344 367.132812 198.707031 366.800781 198.707031 " fill-opacity="1" fill-rule="nonzero"/><path fill="rgb(62.348938%, 8.239746%, 13.729858%)" d="M 367.507812 198.25 C 367.507812 198.246094 367.507812 198.246094 367.511719 198.246094 C 370.144531 198.128906 372.34375 196.710938 372.964844 194.734375 C 372.339844 196.710938 370.144531 198.132812 367.507812 198.25 M 372.964844 194.734375 C 372.96875 194.730469 372.96875 194.726562 372.96875 194.722656 C 372.96875 194.726562 372.96875 194.730469 372.964844 194.734375 M 372.972656 194.71875 C 372.972656 194.714844 372.972656 194.710938 372.972656 194.707031 C 372.972656 194.710938 372.972656 194.714844 372.972656 194.71875 M 372.976562 194.707031 C 372.976562 194.703125 372.976562 194.703125 372.976562 194.699219 C 372.976562 194.703125 372.976562 194.703125 372.976562 194.707031 M 372.980469 194.691406 C 372.980469 194.6875 372.980469 194.6875 372.980469 194.683594 C 372.980469 194.6875 372.980469 194.6875 372.980469 194.691406 M 372.984375 194.675781 C 372.988281 194.671875 372.988281 194.671875 372.988281 194.671875 C 372.988281 194.671875 372.988281 194.671875 372.984375 194.675781 M 372.992188 194.664062 C 372.992188 194.664062 372.992188 194.664062 372.992188 194.660156 C 372.992188 194.664062 372.992188 194.664062 372.992188 194.664062 " fill-opacity="1" fill-rule="nonzero"/><path fill="rgb(41.569519%, 40.388489%, 40.779114%)" d="M 366.714844 198.699219 C 366.707031 198.699219 366.699219 198.699219 366.691406 198.699219 L 366.6875 198.699219 C 366.699219 198.699219 366.703125 198.699219 366.710938 198.699219 C 367.046875 198.699219 367.335938 198.515625 367.496094 198.246094 C 367.5 198.246094 367.503906 198.246094 367.511719 198.246094 C 367.507812 198.246094 367.507812 198.246094 367.507812 198.25 C 367.34375 198.519531 367.046875 198.699219 366.714844 198.699219 " fill-opacity="1" fill-rule="nonzero"/><path fill="rgb(82.749939%, 82.348633%, 82.348633%)" d="M 363.945312 198.496094 C 363.921875 198.496094 363.902344 198.496094 363.878906 198.492188 C 363.863281 198.492188 363.847656 198.492188 363.832031 198.488281 C 363.839844 198.488281 363.851562 198.488281 363.863281 198.488281 C 364.058594 198.488281 364.246094 198.425781 364.398438 198.316406 C 364.519531 198.230469 364.617188 198.113281 364.6875 197.984375 L 364.816406 197.992188 L 364.773438 197.988281 C 364.617188 198.289062 364.300781 198.496094 363.945312 198.496094 " fill-opacity="1" fill-rule="nonzero"/><path fill="rgb(54.899597%, 54.119873%, 54.508972%)" d="M 365.835938 198.070312 L 364.816406 197.992188 L 364.6875 197.984375 L 365.835938 198.066406 L 365.835938 198.070312 " fill-opacity="1" fill-rule="nonzero"/><path fill="rgb(82.749939%, 82.348633%, 82.348633%)" d="M 360.792969 198.261719 C 360.769531 198.261719 360.746094 198.261719 360.71875 198.257812 C 360.703125 198.257812 360.683594 198.257812 360.667969 198.253906 C 360.675781 198.253906 360.691406 198.253906 360.703125 198.253906 C 360.726562 198.253906 360.75 198.253906 360.777344 198.25 C 360.777344 198.25 360.78125 198.25 360.78125 198.25 C 360.78125 198.25 360.78125 198.25 360.785156 198.25 C 361.105469 198.222656 361.382812 198.027344 361.523438 197.753906 L 361.613281 197.757812 C 361.457031 198.058594 361.144531 198.261719 360.792969 198.261719 " fill-opacity="1" fill-rule="nonzero"/><path fill="rgb(54.899597%, 54.119873%, 54.508972%)" d="M 362.980469 197.855469 L 362.589844 197.828125 L 362.980469 197.855469 M 361.613281 197.757812 L 361.523438 197.753906 L 361.613281 197.757812 " fill-opacity="1" fill-rule="nonzero"/><path fill="rgb(78.039551%, 22.349548%, 11.369324%)" d="M 359.820312 197.625 L 252.199219 189.734375 C 252.199219 189.734375 252.199219 189.734375 252.195312 189.734375 L 359.824219 197.625 C 359.820312 197.625 359.820312 197.625 359.820312 197.625 M 349.523438 190.53125 L 320.464844 188.402344 C 319.375 188.222656 318.28125 188.042969 317.199219 187.863281 C 307.144531 186.195312 297.140625 184.507812 287.023438 183.269531 C 283.992188 182.898438 280.921875 182.394531 277.828125 181.800781 L 356.085938 187.535156 C 356.136719 187.539062 356.1875 187.539062 356.234375 187.539062 C 357.238281 187.539062 358.089844 186.78125 358.164062 185.773438 C 358.167969 185.734375 358.171875 185.695312 358.171875 185.65625 C 358.9375 185.621094 359.785156 185.554688 360.644531 185.4375 L 360.480469 187.691406 C 356.960938 189.089844 353.335938 190.074219 349.523438 190.53125 " fill-opacity="1" fill-rule="nonzero"/><path fill="rgb(27.449036%, 26.269531%, 26.669312%)" d="M 229.410156 188.066406 L 211.628906 186.761719 L 211.625 186.761719 L 229.410156 188.066406 " fill-opacity="1" fill-rule="nonzero"/><path fill="rgb(78.039551%, 22.349548%, 11.369324%)" d="M 229.410156 188.066406 L 211.625 186.761719 L 229.410156 188.066406 " fill-opacity="1" fill-rule="nonzero"/><path fill="rgb(54.899597%, 54.119873%, 54.508972%)" d="M 362.394531 186.886719 L 362.507812 185.308594 C 362.9375 185.480469 363.363281 185.65625 363.789062 185.832031 L 363.761719 186.261719 C 363.308594 186.476562 362.847656 186.683594 362.394531 186.886719 " fill-opacity="1" fill-rule="nonzero"/><path fill="rgb(78.039551%, 22.349548%, 11.369324%)" d="M 341.835938 182.667969 L 299.496094 179.5625 C 304.757812 179.410156 310.039062 179.292969 315.332031 179.292969 C 320.167969 179.292969 325.011719 179.394531 329.835938 179.648438 C 333.453125 180.328125 337.023438 181.179688 340.535156 182.265625 C 340.96875 182.402344 341.402344 182.535156 341.835938 182.667969 " fill-opacity="1" fill-rule="nonzero"/><path fill="rgb(41.569519%, 40.388489%, 40.779114%)" d="M 364.398438 198.316406 C 364.519531 198.230469 364.613281 198.113281 364.683594 197.984375 L 364.6875 197.984375 C 364.617188 198.113281 364.519531 198.230469 364.398438 198.316406 M 363.761719 186.261719 L 363.789062 185.832031 C 363.820312 185.847656 363.847656 185.859375 363.875 185.871094 C 364.003906 185.921875 364.125 185.972656 364.246094 186.027344 C 364.085938 186.105469 363.921875 186.183594 363.761719 186.261719 " fill-opacity="1" fill-rule="nonzero"/><path fill="rgb(41.569519%, 40.388489%, 40.779114%)" d="M 360.777344 198.25 C 360.777344 198.25 360.78125 198.25 360.78125 198.25 C 360.78125 198.25 360.777344 198.25 360.777344 198.25 M 360.785156 198.25 C 361.101562 198.222656 361.382812 198.027344 361.519531 197.753906 L 361.523438 197.753906 C 361.382812 198.027344 361.105469 198.222656 360.785156 198.25 M 359.824219 197.625 L 359.820312 197.625 L 359.824219 197.625 M 360.480469 187.691406 L 360.644531 185.4375 C 361.160156 185.375 361.679688 185.289062 362.191406 185.183594 C 362.296875 185.226562 362.402344 185.269531 362.507812 185.308594 L 362.394531 186.886719 C 361.757812 187.171875 361.121094 187.4375 360.480469 187.691406 " fill-opacity="1" fill-rule="nonzero"/><path fill="rgb(65.098572%, 18.03894%, 9.01947%)" d="M 356.234375 187.539062 C 356.1875 187.539062 356.136719 187.539062 356.085938 187.535156 L 277.828125 181.800781 C 275.054688 181.265625 272.257812 180.660156 269.449219 180.011719 C 270.289062 180.015625 271.121094 180.015625 271.960938 180.015625 C 280.773438 180.015625 289.59375 179.859375 298.457031 179.59375 C 298.804688 179.585938 299.148438 179.574219 299.496094 179.5625 L 341.835938 182.667969 C 346.390625 184.070312 350.988281 185.402344 355.773438 185.664062 C 356.042969 185.679688 356.390625 185.6875 356.789062 185.6875 C 357.199219 185.6875 357.664062 185.679688 358.171875 185.65625 C 358.171875 185.695312 358.167969 185.734375 358.164062 185.773438 C 358.089844 186.78125 357.238281 187.539062 356.234375 187.539062 " fill-opacity="1" fill-rule="nonzero"/><path fill="rgb(65.098572%, 18.03894%, 9.01947%)" d="M 344.214844 190.820312 C 336.292969 190.820312 328.296875 189.675781 320.464844 188.402344 L 349.523438 190.53125 C 348.117188 190.699219 346.6875 190.792969 345.230469 190.8125 C 344.890625 190.816406 344.550781 190.820312 344.214844 190.820312 " fill-opacity="1" fill-rule="nonzero"/><path fill="rgb(44.709778%, 43.919373%, 44.309998%)" d="M 366.6875 198.699219 C 366.671875 198.699219 366.660156 198.695312 366.644531 198.695312 C 366.265625 198.664062 365.953125 198.410156 365.835938 198.070312 L 365.929688 198.070312 C 366.039062 198.402344 366.328125 198.652344 366.6875 198.699219 " fill-opacity="1" fill-rule="nonzero"/><path fill="rgb(91.369629%, 91.369629%, 91.369629%)" d="M 363.832031 198.488281 C 363.816406 198.488281 363.804688 198.488281 363.792969 198.484375 C 363.804688 198.488281 363.816406 198.488281 363.832031 198.488281 M 360.667969 198.253906 C 360.65625 198.253906 360.640625 198.253906 360.628906 198.25 C 360.640625 198.253906 360.65625 198.253906 360.664062 198.253906 L 360.667969 198.253906 M 360.621094 198.25 L 360.621094 198.25 M 360.605469 198.25 C 360.601562 198.25 360.601562 198.25 360.601562 198.25 C 360.601562 198.25 360.601562 198.25 360.605469 198.25 M 363.046875 198.003906 C 363.019531 197.957031 363 197.90625 362.980469 197.855469 C 363 197.90625 363.019531 197.957031 363.046875 198.003906 " fill-opacity="1" fill-rule="nonzero"/><path fill="rgb(60.389709%, 59.609985%, 59.999084%)" d="M 362.589844 197.828125 L 361.613281 197.757812 L 362.589844 197.828125 " fill-opacity="1" fill-rule="nonzero"/><path fill="rgb(91.369629%, 91.369629%, 91.369629%)" d="M 373.039062 194.492188 C 373.085938 194.28125 373.121094 194.070312 373.132812 193.855469 L 374.15625 179.972656 L 373.132812 193.855469 C 373.121094 194.070312 373.085938 194.28125 373.039062 194.492188 " fill-opacity="1" fill-rule="nonzero"/><path fill="rgb(69.018555%, 9.408569%, 15.689087%)" d="M 373.039062 194.492188 C 372.921875 194.058594 372.78125 193.503906 372.828125 193.503906 C 372.84375 193.503906 372.886719 193.582031 372.972656 193.777344 C 372.742188 193.203125 372.503906 192.625 372.191406 192.082031 C 372.113281 191.949219 372.050781 191.847656 372 191.757812 C 371.617188 191.253906 371.222656 190.757812 370.785156 190.300781 C 370.683594 190.195312 369.652344 189.3125 369.691406 189.3125 C 369.699219 189.3125 369.726562 189.332031 369.785156 189.375 C 369.308594 189.007812 368.828125 188.652344 368.335938 188.3125 L 368.382812 187.671875 L 368.675781 183.652344 C 370.632812 182.515625 372.492188 181.238281 374.15625 179.804688 L 374.15625 179.972656 L 373.132812 193.855469 C 373.121094 194.070312 373.085938 194.28125 373.039062 194.492188 " fill-opacity="1" fill-rule="nonzero"/><path fill="rgb(60.389709%, 59.609985%, 59.999084%)" d="M 368.382812 187.671875 L 368.675781 183.652344 L 368.382812 187.671875 M 366.5625 187.210938 C 366.140625 186.980469 365.5625 186.667969 365.609375 186.667969 C 365.625 186.667969 365.695312 186.695312 365.855469 186.769531 C 365.765625 186.726562 365.675781 186.683594 365.589844 186.640625 L 365.6875 185.304688 C 366.039062 185.121094 366.390625 184.933594 366.742188 184.742188 L 366.5625 187.210938 " fill-opacity="1" fill-rule="nonzero"/><path fill="rgb(44.709778%, 43.919373%, 44.309998%)" d="M 368.335938 188.3125 C 367.898438 188.007812 367.449219 187.714844 366.988281 187.441406 C 366.964844 187.429688 366.789062 187.332031 366.5625 187.210938 L 366.742188 184.742188 C 367.378906 184.398438 368.011719 184.042969 368.644531 183.675781 C 368.65625 183.667969 368.667969 183.660156 368.675781 183.652344 L 368.382812 187.671875 L 368.335938 188.3125 " fill-opacity="1" fill-rule="nonzero"/><path fill="rgb(87.449646%, 87.449646%, 87.449646%)" d="M 210.527344 186.046875 L 195.589844 175.578125 L 210.527344 186.046875 " fill-opacity="1" fill-rule="nonzero"/><path fill="rgb(29.40979%, 27.839661%, 28.239441%)" d="M 211.535156 186.753906 L 210.527344 186.046875 L 211.535156 186.753906 " fill-opacity="1" fill-rule="nonzero"/><path fill="rgb(86.268616%, 24.708557%, 12.548828%)" d="M 211.625 186.761719 L 211.535156 186.753906 C 211.535156 186.753906 211.558594 186.753906 211.59375 186.738281 L 211.625 186.761719 M 247.546875 179.578125 C 244.707031 179.476562 241.859375 179.347656 239.011719 179.199219 C 230.90625 178.777344 222.789062 178.664062 214.691406 178.355469 C 215.566406 177.640625 216.351562 176.65625 216.445312 175.390625 C 216.679688 172.152344 213.671875 170.953125 212.855469 170.6875 C 214.351562 170.597656 215.851562 170.558594 217.355469 170.558594 C 229.367188 170.558594 241.667969 173.25 253.84375 176.21875 L 219.707031 173.714844 C 219.660156 173.710938 219.609375 173.710938 219.5625 173.710938 C 218.550781 173.710938 217.707031 174.472656 217.632812 175.476562 C 217.558594 176.527344 218.359375 177.441406 219.429688 177.519531 L 247.546875 179.578125 " fill-opacity="1" fill-rule="nonzero"/><path fill="rgb(44.709778%, 43.919373%, 44.309998%)" d="M 363.832031 198.488281 C 363.816406 198.488281 363.804688 198.488281 363.792969 198.484375 C 363.464844 198.460938 363.191406 198.269531 363.046875 198.003906 C 363.019531 197.957031 363 197.90625 362.980469 197.855469 L 363.070312 197.863281 C 363.183594 198.191406 363.46875 198.441406 363.832031 198.488281 M 365.589844 186.640625 C 365.144531 186.429688 364.699219 186.222656 364.246094 186.027344 C 364.730469 185.792969 365.207031 185.550781 365.6875 185.304688 L 365.589844 186.640625 " fill-opacity="1" fill-rule="nonzero"/><path fill="rgb(44.709778%, 43.919373%, 44.309998%)" d="M 360.664062 198.253906 C 360.65625 198.253906 360.640625 198.253906 360.628906 198.25 C 360.625 198.25 360.625 198.25 360.621094 198.25 C 360.617188 198.25 360.609375 198.25 360.605469 198.25 C 360.601562 198.25 360.601562 198.25 360.601562 198.25 C 360.234375 198.214844 359.933594 197.960938 359.824219 197.625 L 359.910156 197.632812 C 360.019531 197.957031 360.308594 198.207031 360.664062 198.253906 " fill-opacity="1" fill-rule="nonzero"/><path fill="rgb(71.759033%, 20.388794%, 10.198975%)" d="M 269.449219 180.011719 C 262.152344 179.988281 254.863281 179.851562 247.546875 179.578125 L 219.429688 177.519531 C 218.359375 177.441406 217.558594 176.527344 217.632812 175.476562 C 217.707031 174.472656 218.550781 173.710938 219.5625 173.710938 C 219.609375 173.710938 219.660156 173.710938 219.707031 173.714844 L 253.84375 176.21875 C 259.078125 177.496094 264.292969 178.824219 269.449219 180.011719 " fill-opacity="1" fill-rule="nonzero"/><path fill="rgb(83.139038%, 70.199585%, 48.629761%)" d="M 211.535156 186.753906 L 210.527344 186.046875 L 195.589844 175.578125 L 195.691406 174.136719 C 201.304688 172.09375 207.039062 171.035156 212.855469 170.6875 C 213.671875 170.953125 216.679688 172.152344 216.445312 175.390625 C 216.351562 176.65625 215.566406 177.640625 214.691406 178.355469 C 213.257812 178.296875 211.828125 178.242188 210.398438 178.167969 C 205.398438 177.925781 200.605469 177.183594 196.003906 175.8125 L 211.59375 186.738281 C 211.558594 186.753906 211.535156 186.753906 211.535156 186.753906 " fill-opacity="1" fill-rule="nonzero"/><path fill="rgb(21.569824%, 19.999695%, 20.388794%)" d="M 195.589844 175.578125 L 194.296875 174.671875 C 194.761719 174.484375 195.226562 174.308594 195.691406 174.136719 L 195.589844 175.578125 " fill-opacity="1" fill-rule="nonzero"/><path fill="rgb(76.078796%, 75.689697%, 75.689697%)" d="M 372.96875 194.722656 C 372.96875 194.71875 372.972656 194.71875 372.972656 194.71875 C 372.96875 194.71875 372.96875 194.71875 372.96875 194.722656 M 372.972656 194.707031 C 372.976562 194.707031 372.976562 194.707031 372.976562 194.707031 C 372.976562 194.707031 372.976562 194.707031 372.972656 194.707031 M 372.976562 194.699219 C 372.980469 194.695312 372.980469 194.695312 372.980469 194.691406 C 372.980469 194.695312 372.980469 194.695312 372.976562 194.699219 M 372.980469 194.683594 C 372.984375 194.679688 372.984375 194.679688 372.984375 194.675781 C 372.984375 194.679688 372.984375 194.679688 372.980469 194.683594 M 372.988281 194.671875 C 372.988281 194.667969 372.988281 194.664062 372.992188 194.664062 C 372.988281 194.664062 372.988281 194.667969 372.988281 194.671875 M 372.992188 194.660156 C 373.003906 194.601562 373.019531 194.546875 373.039062 194.492188 C 373.019531 194.546875 373.003906 194.601562 372.992188 194.660156 " fill-opacity="1" fill-rule="nonzero"/><path fill="rgb(57.249451%, 7.449341%, 12.548828%)" d="M 367.511719 198.246094 C 367.515625 198.230469 367.527344 198.210938 367.539062 198.191406 L 367.609375 198.195312 L 367.636719 197.871094 C 367.636719 197.859375 367.636719 197.851562 367.636719 197.839844 L 368.335938 188.3125 C 368.828125 188.652344 369.308594 189.007812 369.785156 189.375 C 369.726562 189.332031 369.699219 189.3125 369.691406 189.3125 C 369.652344 189.3125 370.683594 190.195312 370.785156 190.300781 C 371.222656 190.757812 371.617188 191.253906 372 191.757812 C 372.050781 191.847656 372.113281 191.949219 372.191406 192.082031 C 372.503906 192.625 372.742188 193.203125 372.972656 193.777344 C 372.886719 193.582031 372.84375 193.503906 372.828125 193.503906 C 372.78125 193.503906 372.921875 194.058594 373.039062 194.492188 C 373.019531 194.546875 373.003906 194.601562 372.992188 194.660156 C 372.992188 194.664062 372.992188 194.664062 372.992188 194.664062 C 372.988281 194.664062 372.988281 194.667969 372.988281 194.671875 C 372.988281 194.671875 372.988281 194.671875 372.984375 194.675781 C 372.984375 194.679688 372.984375 194.679688 372.980469 194.683594 C 372.980469 194.6875 372.980469 194.6875 372.980469 194.691406 C 372.980469 194.695312 372.980469 194.695312 372.976562 194.699219 C 372.976562 194.703125 372.976562 194.703125 372.976562 194.707031 C 372.976562 194.707031 372.976562 194.707031 372.972656 194.707031 C 372.972656 194.710938 372.972656 194.714844 372.972656 194.71875 C 372.972656 194.71875 372.96875 194.71875 372.96875 194.722656 C 372.96875 194.726562 372.96875 194.730469 372.964844 194.734375 C 372.34375 196.710938 370.144531 198.128906 367.511719 198.246094 " fill-opacity="1" fill-rule="nonzero"/><path fill="rgb(50.979614%, 50.19989%, 50.19989%)" d="M 367.609375 198.195312 L 367.539062 198.191406 C 367.589844 198.09375 367.621094 197.984375 367.636719 197.871094 L 367.609375 198.195312 M 365.835938 198.066406 L 364.6875 197.984375 C 364.738281 197.875 364.773438 197.757812 364.78125 197.632812 L 365.589844 186.640625 C 365.675781 186.683594 365.765625 186.726562 365.855469 186.769531 C 365.695312 186.695312 365.625 186.667969 365.609375 186.667969 C 365.5625 186.667969 366.140625 186.980469 366.5625 187.210938 L 365.789062 197.707031 C 365.78125 197.832031 365.800781 197.953125 365.835938 198.066406 " fill-opacity="1" fill-rule="nonzero"/><path fill="rgb(38.819885%, 37.649536%, 38.038635%)" d="M 366.710938 198.699219 C 366.703125 198.699219 366.699219 198.699219 366.6875 198.699219 C 366.328125 198.652344 366.039062 198.402344 365.929688 198.070312 L 365.835938 198.070312 C 365.835938 198.070312 365.835938 198.070312 365.835938 198.066406 C 365.800781 197.953125 365.78125 197.832031 365.789062 197.707031 L 366.5625 187.210938 C 366.789062 187.332031 366.964844 187.429688 366.988281 187.441406 C 367.449219 187.714844 367.898438 188.007812 368.335938 188.3125 L 367.636719 197.839844 C 367.636719 197.851562 367.636719 197.859375 367.636719 197.871094 C 367.621094 197.984375 367.589844 198.09375 367.539062 198.191406 C 367.527344 198.210938 367.515625 198.230469 367.511719 198.246094 C 367.503906 198.246094 367.5 198.246094 367.496094 198.246094 C 367.335938 198.515625 367.046875 198.699219 366.710938 198.699219 " fill-opacity="1" fill-rule="nonzero"/><path fill="rgb(76.078796%, 75.689697%, 75.689697%)" d="M 363.863281 198.488281 C 363.851562 198.488281 363.839844 198.488281 363.832031 198.488281 C 363.835938 198.488281 363.847656 198.488281 363.859375 198.488281 C 364.058594 198.488281 364.246094 198.425781 364.398438 198.316406 C 364.246094 198.425781 364.058594 198.488281 363.863281 198.488281 M 360.703125 198.253906 C 360.691406 198.253906 360.675781 198.253906 360.667969 198.253906 L 360.664062 198.253906 C 360.675781 198.253906 360.691406 198.253906 360.703125 198.253906 C 360.726562 198.253906 360.75 198.253906 360.777344 198.25 C 360.75 198.253906 360.726562 198.253906 360.703125 198.253906 M 360.78125 198.25 C 360.78125 198.25 360.78125 198.25 360.785156 198.25 C 360.78125 198.25 360.78125 198.25 360.78125 198.25 " fill-opacity="1" fill-rule="nonzero"/><path fill="rgb(50.979614%, 50.19989%, 50.19989%)" d="M 362.980469 197.855469 L 362.589844 197.828125 L 361.613281 197.757812 L 361.523438 197.753906 C 361.578125 197.644531 361.613281 197.523438 361.621094 197.398438 L 362.394531 186.886719 C 362.847656 186.683594 363.308594 186.476562 363.761719 186.261719 L 362.933594 197.496094 C 362.925781 197.621094 362.941406 197.746094 362.980469 197.855469 " fill-opacity="1" fill-rule="nonzero"/><path fill="rgb(71.759033%, 20.388794%, 10.198975%)" d="M 359.824219 197.625 L 252.195312 189.734375 C 249.730469 188.359375 247.144531 187.328125 244.585938 186.667969 L 355.554688 194.800781 C 355.605469 194.804688 355.652344 194.804688 355.699219 194.804688 C 356.707031 194.804688 357.558594 194.039062 357.628906 193.035156 C 357.707031 191.988281 356.902344 191.074219 355.835938 190.996094 L 349.523438 190.53125 C 353.335938 190.074219 356.960938 189.089844 360.480469 187.691406 L 359.777344 197.261719 C 359.765625 197.386719 359.785156 197.511719 359.820312 197.625 M 320.464844 188.402344 L 219.175781 180.972656 C 219.125 180.96875 219.078125 180.96875 219.027344 180.96875 C 218.023438 180.96875 217.175781 181.734375 217.097656 182.738281 C 217.023438 183.785156 217.824219 184.707031 218.894531 184.78125 L 235.167969 185.976562 C 232.984375 186.285156 231.011719 186.976562 229.410156 188.066406 L 211.625 186.761719 L 211.59375 186.738281 C 211.976562 186.625 214.148438 185.890625 214.460938 183.863281 C 214.804688 181.648438 212.042969 179.824219 212.042969 179.824219 C 212.042969 179.824219 213.460938 179.351562 214.691406 178.355469 C 222.789062 178.664062 230.90625 178.777344 239.011719 179.199219 C 241.859375 179.347656 244.707031 179.476562 247.546875 179.578125 L 277.828125 181.800781 C 280.921875 182.394531 283.992188 182.898438 287.023438 183.269531 C 297.140625 184.507812 307.144531 186.195312 317.199219 187.863281 C 318.28125 188.042969 319.375 188.222656 320.464844 188.402344 " fill-opacity="1" fill-rule="nonzero"/><path fill="rgb(38.819885%, 37.649536%, 38.038635%)" d="M 363.859375 198.488281 C 363.847656 198.488281 363.835938 198.488281 363.832031 198.488281 C 363.46875 198.441406 363.183594 198.191406 363.070312 197.863281 L 362.980469 197.855469 C 362.941406 197.746094 362.925781 197.621094 362.933594 197.496094 L 363.761719 186.261719 C 363.921875 186.183594 364.085938 186.105469 364.246094 186.027344 C 364.699219 186.222656 365.144531 186.429688 365.589844 186.640625 L 364.78125 197.632812 C 364.773438 197.757812 364.738281 197.875 364.6875 197.984375 L 364.683594 197.984375 C 364.613281 198.113281 364.519531 198.230469 364.398438 198.316406 C 364.246094 198.425781 364.058594 198.488281 363.859375 198.488281 " fill-opacity="1" fill-rule="nonzero"/><path fill="rgb(38.819885%, 37.649536%, 38.038635%)" d="M 360.703125 198.253906 C 360.691406 198.253906 360.675781 198.253906 360.664062 198.253906 C 360.308594 198.207031 360.019531 197.957031 359.910156 197.632812 L 359.824219 197.625 C 359.785156 197.511719 359.765625 197.386719 359.777344 197.261719 L 360.480469 187.691406 C 361.121094 187.4375 361.757812 187.171875 362.394531 186.886719 L 361.621094 197.398438 C 361.613281 197.523438 361.578125 197.644531 361.523438 197.753906 L 361.519531 197.753906 C 361.382812 198.027344 361.101562 198.222656 360.785156 198.25 C 360.78125 198.25 360.78125 198.25 360.78125 198.25 C 360.78125 198.25 360.777344 198.25 360.777344 198.25 C 360.75 198.253906 360.726562 198.253906 360.703125 198.253906 " fill-opacity="1" fill-rule="nonzero"/><path fill="rgb(59.999084%, 16.468811%, 8.239746%)" d="M 277.828125 181.800781 L 247.546875 179.578125 C 254.863281 179.851562 262.152344 179.988281 269.449219 180.011719 C 272.257812 180.660156 275.054688 181.265625 277.828125 181.800781 " fill-opacity="1" fill-rule="nonzero"/><path fill="rgb(59.999084%, 16.468811%, 8.239746%)" d="M 355.699219 194.804688 C 355.652344 194.804688 355.605469 194.804688 355.554688 194.800781 L 244.585938 186.667969 C 242.332031 186.082031 240.097656 185.78125 237.992188 185.78125 C 237.019531 185.78125 236.078125 185.847656 235.167969 185.976562 L 218.894531 184.78125 C 217.824219 184.707031 217.023438 183.785156 217.097656 182.738281 C 217.175781 181.734375 218.023438 180.96875 219.027344 180.96875 C 219.078125 180.96875 219.125 180.96875 219.175781 180.972656 L 320.464844 188.402344 C 328.296875 189.675781 336.292969 190.820312 344.214844 190.820312 C 344.550781 190.820312 344.890625 190.816406 345.230469 190.8125 C 346.6875 190.792969 348.117188 190.699219 349.523438 190.53125 L 355.835938 190.996094 C 356.902344 191.074219 357.707031 191.988281 357.628906 193.035156 C 357.558594 194.039062 356.707031 194.804688 355.699219 194.804688 " fill-opacity="1" fill-rule="nonzero"/><path fill="rgb(68.629456%, 57.649231%, 39.99939%)" d="M 211.59375 186.738281 L 196.003906 175.8125 C 200.605469 177.183594 205.398438 177.925781 210.398438 178.167969 C 211.828125 178.242188 213.257812 178.296875 214.691406 178.355469 C 213.460938 179.351562 212.042969 179.824219 212.042969 179.824219 C 212.042969 179.824219 214.804688 181.648438 214.460938 183.863281 C 214.148438 185.890625 211.976562 186.625 211.59375 186.738281 " fill-opacity="1" fill-rule="nonzero"/><path fill="rgb(79.219055%, 78.819275%, 78.819275%)" d="M 362.523438 185.113281 L 363.09375 177.367188 C 363.539062 177.582031 363.964844 177.820312 364.359375 178.085938 L 363.875 184.75 C 363.445312 184.886719 362.988281 185.007812 362.523438 185.113281 " fill-opacity="1" fill-rule="nonzero"/><path fill="rgb(96.078491%, 47.839355%, 19.60907%)" d="M 360.703125 184.632812 C 360.492188 184.558594 360.277344 184.484375 360.058594 184.414062 C 358.523438 183.902344 356.980469 183.433594 355.414062 183.027344 C 355.011719 182.925781 352.5 182.355469 352.613281 182.355469 C 352.617188 182.355469 352.625 182.355469 352.636719 182.355469 C 345.113281 180.882812 337.492188 180.0625 329.835938 179.648438 C 314.355469 176.757812 298.113281 177.125 282.503906 176.175781 C 279.164062 175.972656 275.855469 175.644531 272.550781 175.25 C 270.078125 174.695312 267.609375 174.128906 265.140625 173.566406 L 356.621094 180.277344 C 356.671875 180.28125 356.722656 180.28125 356.769531 180.28125 C 357.773438 180.28125 358.621094 179.519531 358.695312 178.515625 C 358.773438 177.464844 357.96875 176.546875 356.902344 176.46875 L 321.488281 173.875 C 323.34375 173.867188 325.199219 173.855469 327.050781 173.839844 C 329.476562 173.820312 331.902344 173.804688 334.328125 173.804688 C 335.777344 173.804688 337.222656 173.8125 338.667969 173.828125 C 344.578125 173.898438 350.585938 174.117188 356.378906 175.351562 C 357.792969 175.65625 359.585938 176.03125 361.289062 176.628906 L 360.703125 184.632812 " fill-opacity="1" fill-rule="nonzero"/><path fill="rgb(79.219055%, 78.819275%, 78.819275%)" d="M 365.796875 183.824219 L 366.097656 179.710938 C 366.101562 179.71875 366.105469 179.730469 366.113281 179.734375 C 367.117188 181.15625 367.128906 182.246094 366.546875 183.085938 C 366.359375 183.355469 366.101562 183.605469 365.796875 183.824219 " fill-opacity="1" fill-rule="nonzero"/><path fill="rgb(96.078491%, 47.839355%, 19.60907%)" d="M 282.207031 170.996094 L 230.59375 167.214844 C 229.972656 167.132812 229.34375 167.050781 228.71875 166.972656 C 229.535156 166.933594 230.34375 166.894531 231.15625 166.867188 C 232.964844 166.800781 234.765625 166.769531 236.570312 166.769531 C 251.832031 166.769531 267.035156 168.996094 282.207031 170.996094 " fill-opacity="1" fill-rule="nonzero"/><path fill="rgb(65.879822%, 65.098572%, 65.489197%)" d="M 363.875 184.75 L 364.359375 178.085938 C 365.050781 178.546875 365.648438 179.085938 366.097656 179.710938 L 365.796875 183.824219 C 365.277344 184.199219 364.613281 184.503906 363.875 184.75 " fill-opacity="1" fill-rule="nonzero"/><path fill="rgb(65.879822%, 65.098572%, 65.489197%)" d="M 362.191406 185.183594 C 361.695312 184.996094 361.203125 184.808594 360.703125 184.632812 L 361.289062 176.628906 C 361.90625 176.839844 362.515625 177.085938 363.09375 177.367188 L 362.523438 185.113281 C 362.414062 185.136719 362.300781 185.164062 362.191406 185.183594 " fill-opacity="1" fill-rule="nonzero"/><path fill="rgb(86.268616%, 42.749023%, 17.248535%)" d="M 356.769531 180.28125 C 356.722656 180.28125 356.671875 180.28125 356.621094 180.277344 L 265.140625 173.566406 C 256.078125 171.511719 247.011719 169.507812 237.789062 168.21875 C 235.445312 167.894531 233.035156 167.535156 230.59375 167.214844 L 282.207031 170.996094 C 288.398438 171.8125 294.582031 172.585938 300.765625 173.164062 C 307.105469 173.75 313.4375 173.878906 319.773438 173.878906 C 320.347656 173.878906 320.917969 173.875 321.488281 173.875 L 356.902344 176.46875 C 357.96875 176.546875 358.773438 177.464844 358.695312 178.515625 C 358.621094 179.519531 357.773438 180.28125 356.769531 180.28125 " fill-opacity="1" fill-rule="nonzero"/><path fill="rgb(86.268616%, 42.749023%, 17.248535%)" d="M 358.171875 185.65625 C 358.179688 184.660156 357.394531 183.808594 356.367188 183.730469 L 341.835938 182.667969 C 341.402344 182.535156 340.96875 182.402344 340.535156 182.265625 C 337.023438 181.179688 333.453125 180.328125 329.835938 179.648438 C 337.492188 180.0625 345.113281 180.882812 352.636719 182.355469 C 352.625 182.355469 352.617188 182.355469 352.613281 182.355469 C 352.5 182.355469 355.011719 182.925781 355.414062 183.027344 C 356.980469 183.433594 358.523438 183.902344 360.058594 184.414062 C 360.277344 184.484375 360.492188 184.558594 360.703125 184.632812 L 360.644531 185.4375 C 359.785156 185.554688 358.9375 185.621094 358.171875 185.65625 " fill-opacity="1" fill-rule="nonzero"/><path fill="rgb(60.389709%, 59.609985%, 59.999084%)" d="M 360.644531 185.4375 L 360.703125 184.632812 C 361.203125 184.808594 361.695312 184.996094 362.191406 185.183594 C 361.679688 185.289062 361.160156 185.375 360.644531 185.4375 " fill-opacity="1" fill-rule="nonzero"/><path fill="rgb(77.648926%, 38.42926%, 15.689087%)" d="M 356.789062 185.6875 C 356.390625 185.6875 356.042969 185.679688 355.773438 185.664062 C 350.988281 185.402344 346.390625 184.070312 341.835938 182.667969 L 356.367188 183.730469 C 357.394531 183.808594 358.179688 184.660156 358.171875 185.65625 C 357.664062 185.679688 357.199219 185.6875 356.789062 185.6875 " fill-opacity="1" fill-rule="nonzero"/><path fill="rgb(95.289612%, 70.588684%, 54.899597%)" d="M 302.445312 246.570312 L 260.234375 196.125 C 251.441406 186.285156 236.324219 183.027344 229.128906 188.261719 C 221.9375 193.503906 231.121094 203.421875 236.367188 210.609375 L 276.402344 265.535156 L 302.445312 246.570312 " fill-opacity="1" fill-rule="nonzero"/><path fill="rgb(95.689392%, 95.689392%, 95.689392%)" d="M 237.691406 212.429688 C 237.636719 212.355469 237.554688 212.238281 237.445312 212.09375 L 237.691406 212.429688 M 227.496094 197.449219 C 227.433594 197.3125 227.382812 197.199219 227.351562 197.105469 C 227.398438 197.21875 227.445312 197.335938 227.496094 197.449219 " fill-opacity="1" fill-rule="nonzero"/><path fill="rgb(95.689392%, 79.998779%, 69.018555%)" d="M 237.765625 212.535156 C 237.765625 212.535156 237.738281 212.496094 237.691406 212.429688 L 237.445312 212.09375 C 235.84375 209.894531 228.738281 200.078125 227.496094 197.449219 C 227.445312 197.335938 227.398438 197.21875 227.351562 197.105469 C 227.351562 197.097656 227.347656 197.089844 227.34375 197.082031 C 227.34375 197.082031 231.097656 191.308594 236.835938 191.308594 C 238.753906 191.308594 240.890625 191.949219 243.183594 193.667969 C 252.347656 200.53125 252.5625 204.609375 252.5625 204.609375 L 237.765625 212.535156 " fill-opacity="1" fill-rule="nonzero"/><path fill="rgb(91.369629%, 91.369629%, 91.369629%)" d="M 296.46875 329.871094 L 371.546875 324.832031 L 369.820312 299.097656 L 294.742188 304.132812 L 296.46875 329.871094 " fill-opacity="1" fill-rule="nonzero"/><path fill="rgb(83.918762%, 83.529663%, 83.529663%)" d="M 369.640625 319.242188 L 368.460938 301.773438 L 294.917969 306.710938 L 294.742188 304.132812 L 369.820312 299.097656 L 371.164062 319.140625 L 369.640625 319.242188 " fill-opacity="1" fill-rule="nonzero"/><g clip-path="url(#id5)"><path fill="rgb(22.349548%, 20.779419%, 21.179199%)" d="M 293.609375 330.613281 L 375.003906 330.613281 L 374.21875 318.933594 L 293.035156 324.382812 L 293.449219 330.496094 L 293.609375 330.613281 " fill-opacity="1" fill-rule="nonzero"/></g><path fill="rgb(91.369629%, 91.369629%, 91.369629%)" d="M 293.035156 324.382812 L 296.085938 324.179688 L 293.035156 324.382812 " fill-opacity="1" fill-rule="nonzero"/><path fill="rgb(83.918762%, 83.529663%, 83.529663%)" d="M 296.085938 324.179688 L 369.640625 319.242188 L 296.085938 324.179688 " fill-opacity="1" fill-rule="nonzero"/><path fill="rgb(91.369629%, 91.369629%, 91.369629%)" d="M 371.164062 319.140625 L 373.382812 318.992188 L 371.164062 319.140625 " fill-opacity="1" fill-rule="nonzero"/><path fill="rgb(76.858521%, 76.469421%, 76.858521%)" d="M 369.640625 319.242188 L 371.164062 319.140625 L 369.640625 319.242188 " fill-opacity="1" fill-rule="nonzero"/><path fill="rgb(91.369629%, 91.369629%, 91.369629%)" d="M 374.25 319.4375 L 374.21875 318.933594 L 374.25 319.433594 C 374.25 319.433594 374.25 319.4375 374.25 319.4375 " fill-opacity="1" fill-rule="nonzero"/><g clip-path="url(#id6)"><path fill="rgb(21.569824%, 19.999695%, 20.388794%)" d="M 361.128906 330.613281 L 352.117188 330.613281 C 357.617188 329.480469 362.953125 327.367188 368.117188 324.039062 C 369.460938 323.171875 371.011719 322.046875 371.894531 321.164062 C 372.375 320.6875 372.816406 320.125 373.257812 319.554688 C 373.261719 319.542969 373.269531 319.535156 373.277344 319.527344 C 373.269531 319.53125 373.261719 319.542969 373.257812 319.554688 C 373.171875 319.65625 373.128906 319.703125 373.105469 319.703125 C 373.042969 319.703125 373.207031 319.324219 373.382812 318.992188 L 374.21875 318.933594 L 374.25 319.4375 C 374.105469 319.730469 373.953125 320.015625 373.796875 320.292969 C 373.664062 320.519531 373.582031 320.679688 373.527344 320.78125 C 373.476562 320.847656 373.425781 320.921875 373.359375 321.015625 C 372.972656 321.550781 372.589844 322.09375 372.183594 322.59375 C 371.359375 323.601562 370.515625 324.5625 369.632812 325.417969 C 369.292969 325.75 368.953125 326.078125 368.605469 326.390625 C 368.5 326.464844 367.792969 327.054688 367.746094 327.089844 C 365.613281 328.710938 363.394531 329.824219 361.128906 330.613281 " fill-opacity="1" fill-rule="nonzero"/></g><g clip-path="url(#id7)"><path fill="rgb(20.779419%, 19.219971%, 19.60907%)" d="M 352.117188 330.613281 L 293.609375 330.613281 L 293.449219 330.496094 L 293.035156 324.382812 L 373.382812 318.992188 C 373.207031 319.324219 373.042969 319.703125 373.105469 319.703125 C 373.128906 319.703125 373.171875 319.65625 373.257812 319.554688 C 372.816406 320.125 372.375 320.6875 371.894531 321.164062 C 371.011719 322.046875 369.460938 323.171875 368.117188 324.039062 C 362.953125 327.367188 357.617188 329.480469 352.117188 330.613281 M 373.257812 319.554688 C 373.261719 319.542969 373.269531 319.53125 373.277344 319.527344 C 373.269531 319.535156 373.261719 319.542969 373.257812 319.554688 " fill-opacity="1" fill-rule="nonzero"/></g></svg>